<?xml version="1.0" encoding="utf-8"?><svg version="1.1" id="Layer_1" xmlns="http://www.w3.org/2000/svg" xmlns:xlink="http://www.w3.org/1999/xlink" x="0px" y="0px" viewBox="0 0 122.88 102.58" style="enable-background:new 0 0 122.88 102.58" xml:space="preserve"><style type="text/css"><![CDATA[
	.st0{fill-rule:evenodd;clip-rule:evenodd;fill:#EF4136;}
	.st1{fill-rule:evenodd;clip-rule:evenodd;fill:#F0C419;}
	.st2{fill-rule:evenodd;clip-rule:evenodd;fill:#FFFFFF;}
	.st3{fill-rule:evenodd;clip-rule:evenodd;fill:#393939;}
]]></style><g><path class="st1" d="M11.61,55.55c1.84,0,3.32,1.49,3.32,3.32s-1.49,3.32-3.32,3.32H3.32C1.49,62.2,0,60.71,0,58.88 s1.49-3.32,3.32-3.32H11.61L11.61,55.55L11.61,55.55z M19.59,32.37c1.58,0.91,2.13,2.93,1.22,4.52c-0.91,1.58-2.93,2.13-4.52,1.22 l-7.17-4.14c-1.58-0.91-2.13-2.93-1.22-4.52c0.91-1.58,2.93-2.13,4.52-1.22L19.59,32.37L19.59,32.37L19.59,32.37z M38.11,16.28 c0.92,1.58,0.38,3.61-1.21,4.53c-1.58,0.92-3.61,0.38-4.53-1.21l-4.14-7.17c-0.92-1.58-0.38-3.61,1.21-4.53 c1.58-0.92,3.61-0.38,4.53,1.21L38.11,16.28L38.11,16.28L38.11,16.28z M106.6,38.11c-1.58,0.91-3.61,0.36-4.52-1.22 c-0.91-1.58-0.36-3.61,1.22-4.52l7.17-4.14c1.58-0.91,3.61-0.36,4.52,1.22c0.91,1.58,0.36,3.61-1.22,4.52L106.6,38.11L106.6,38.11 L106.6,38.11z M90.52,19.6c-0.92,1.58-2.95,2.13-4.53,1.21c-1.58-0.92-2.13-2.95-1.21-4.53l4.14-7.17 c0.92-1.58,2.95-2.13,4.53-1.21s2.13,2.95,1.21,4.53L90.52,19.6L90.52,19.6L90.52,19.6z M67.34,11.61c0,1.84-1.49,3.32-3.32,3.32 c-1.84,0-3.32-1.49-3.32-3.32V3.32C60.7,1.48,62.19,0,64.02,0c1.84,0,3.32,1.49,3.32,3.32V11.61L67.34,11.61L67.34,11.61z M111.28,62.2c-1.84,0-3.32-1.49-3.32-3.32s1.49-3.32,3.32-3.32h8.28c1.84,0,3.32,1.49,3.32,3.32s-1.49,3.32-3.32,3.32H111.28 L111.28,62.2L111.28,62.2z"/><path class="st0" d="M59.75,24.77h3.37c16.56,0,30.12,13.55,30.12,30.12v30.54H29.64V54.88C29.63,38.32,43.19,24.77,59.75,24.77 L59.75,24.77L59.75,24.77z"/><path class="st2" d="M44.12,75.26h-6.13v-7.98c0-2.23,0-2.47-0.01-2.73c-0.09-8.52-0.17-15.78,6.97-23.21 c2.03-2.11,4.39-3.78,7.03-5.07C45.88,48.4,43.85,61.35,44.12,75.26L44.12,75.26L44.12,75.26z"/><path class="st3" d="M24.59,85.24h74.04c3.49,0,6.34,2.85,6.34,6.34v4.66c0,3.49-2.85,6.34-6.34,6.34H24.59 c-3.49,0-6.34-2.85-6.34-6.34v-4.66C18.25,88.09,21.1,85.24,24.59,85.24L24.59,85.24z"/></g></svg>