<svg xmlns="http://www.w3.org/2000/svg" viewBox="0 0 107.65 122.88"><defs><style>.a{fill:#d8453e;}.a,.b{fill-rule:evenodd;}.b{fill:#1f1f1f;}</style></defs><title>health-insurance</title><path class="a" d="M36.69,14.05h8.74a3,3,0,0,1,3,3V27.15H58.53a3,3,0,0,1,3,3v8.74a3,3,0,0,1-3,3H48.4V51.7a3,3,0,0,1-3,3H36.69a3,3,0,0,1-3-3V41.83H23.59a3,3,0,0,1-3-3V30.11a3,3,0,0,1,3-3H33.72V17a3,3,0,0,1,3-3Z"/><path class="b" d="M107.51,64.09c1.58,32-10.24,50.91-31.18,58.79C56.1,115.49,44.14,97.41,45,63.6c10.63.56,21.07-1.74,31.18-9.59,9,5.69,20.41,11.07,31.3,10.08Zm-90.3,9.7a2.88,2.88,0,1,1,0-5.76H32.94a2.88,2.88,0,0,1,0,5.76ZM82,17h9.16a6.56,6.56,0,0,1,6.55,6.55c0,11,4.73,30.86-5.61,26.41V23.53a.87.87,0,0,0-.28-.65.92.92,0,0,0-.66-.29H82V44.87q-2.76-1.56-5.58-3.36h0l0,0v-35a1,1,0,0,0-.95-.94H6.55a.84.84,0,0,0-.65.29.86.86,0,0,0-.29.65V84.36A.85.85,0,0,0,5.9,85a.92.92,0,0,0,.65.28H36.21q.57,2.9,1.29,5.61H21.32v10.42a.87.87,0,0,0,.28.66,1,1,0,0,0,.66.29H41.4c.84,1.95,1.76,3.82,2.73,5.61H22.26a6.56,6.56,0,0,1-6.55-6.56V90.92H6.55A6.56,6.56,0,0,1,0,84.36V6.55A6.56,6.56,0,0,1,6.55,0H75.43A6.56,6.56,0,0,1,82,6.55V17ZM97.81,71.83c1.08,21.82-7,34.71-21.26,40.09l-.27-.1V65.09l.18-.13c6.11,3.87,13.92,7.55,21.35,6.87ZM76.22,58c10.34,6.55,19.68,9.66,27.7,8.92,1.4,28.33-9.06,45.06-27.59,52-17.91-6.53-28.49-22.54-27.72-52.47A39.53,39.53,0,0,0,76.22,58Z"/></svg>