<svg id="Layer_1" data-name="Layer 1" xmlns="http://www.w3.org/2000/svg" viewBox="0 0 100.23 122.88"><defs><style>.cls-1{fill-rule:evenodd;}</style></defs><title>medical-hospital-bill</title><path class="cls-1" d="M29.71,8.68h7A9.35,9.35,0,0,1,55.4,8.57l8.24.11a1,1,0,0,1,1,1v9.94a1,1,0,0,1-1,1H29.72a1,1,0,0,1-1-1V9.71a1,1,0,0,1,1-1ZM64,114.45a3.71,3.71,0,0,1,.57,1.94c0,3.58-5.55,6.49-12.38,6.49S39.76,120,39.76,116.39a3.82,3.82,0,0,1,.56-1.94c1.58,2.63,6.27,4.55,11.82,4.55s10.24-1.92,11.81-4.55Zm35.58-3.07a4.6,4.6,0,0,1,.7,2.38c0,4.39-6.8,8-15.17,8s-15.17-3.57-15.17-8a4.64,4.64,0,0,1,.69-2.38c1.93,3.23,7.68,5.58,14.48,5.58s12.55-2.35,14.47-5.58Zm-9-20-.18,2-7.45-.65a6.8,6.8,0,0,1,1.28,2.68l-1.79-.16a6,6,0,0,0-.81-1.75A3.61,3.61,0,0,0,80,92.05l.14-1.6,10.36.9Zm-5.48-3.09c6.88,0,12.46,2.19,12.46,4.89S91.94,98,85.06,98s-12.47-2.2-12.47-4.89,5.58-4.89,12.47-4.89Zm0-1.63c8.37,0,15.17,3.57,15.17,8s-6.8,8-15.17,8-15.17-3.57-15.17-8,6.79-8,15.17-8Zm14.52,15.42a4.51,4.51,0,0,1,.65,2.28c0,4.39-6.8,8-15.17,8s-15.17-3.56-15.17-8a4.47,4.47,0,0,1,.64-2.28c1.87,3.27,7.66,5.67,14.53,5.67s12.65-2.4,14.52-5.67Zm-43-4-.14,1.61-6.08-.53a5.51,5.51,0,0,1,1,2.18L50,101.23a4.59,4.59,0,0,0-.66-1.43,3,3,0,0,0-1.26-1.13l.11-1.31,8.45.74Zm-4.47-2.53c5.62,0,10.17,1.79,10.17,4s-4.55,4-10.17,4S42,101.76,42,99.56s4.55-4,10.17-4Zm0-1.32c6.83,0,12.38,2.91,12.38,6.49s-5.55,6.49-12.38,6.49-12.38-2.91-12.38-6.49,5.54-6.49,12.38-6.49ZM64,106.83a3.81,3.81,0,0,1,.52,1.86c0,3.58-5.55,6.49-12.38,6.49s-12.38-2.91-12.38-6.49a3.68,3.68,0,0,1,.52-1.86c1.53,2.67,6.26,4.63,11.86,4.63s10.33-2,11.86-4.63ZM44.13,28.38h5.1A1.73,1.73,0,0,1,51,30.11v6.45h6.46a1.74,1.74,0,0,1,1.73,1.73v5.09a1.74,1.74,0,0,1-1.73,1.73H51v6.31a1.73,1.73,0,0,1-1.72,1.73h-5.1a1.73,1.73,0,0,1-1.72-1.73V45.11H36a1.74,1.74,0,0,1-1.73-1.73V38.29A1.74,1.74,0,0,1,36,36.56h6.46V30.11a1.72,1.72,0,0,1,1.72-1.73ZM6.21,12.44h14.9v7.83H12.42a5.31,5.31,0,0,0-5.25,5.25v79.41a5.29,5.29,0,0,0,5.25,5.25H33.35a10.43,10.43,0,0,0,.67,2.4,8.4,8.4,0,0,0-.34,1v0a9.72,9.72,0,0,0-.3,4.35H6.21A6.24,6.24,0,0,1,0,111.74V18.65a6.22,6.22,0,0,1,6.21-6.21Zm80,67.7V25.52a5.29,5.29,0,0,0-5.24-5.25H72.26V12.44H87.15a6.24,6.24,0,0,1,6.21,6.21V81.16a32.63,32.63,0,0,0-7.18-1Zm-68-16.72H77v4.32H18.2V63.42Zm.86,26.83H40.69l-.3.15a14.78,14.78,0,0,0-5.07,4.17H19.06V90.25Zm-.86-13H77v3.86c-.55.14-1.09.29-1.61.46H18.2V77.23Zm24-64.3a6.92,6.92,0,0,0,2.51,2.18,4.63,4.63,0,0,0,2.45,0A6.8,6.8,0,0,0,50.12,12a5.73,5.73,0,0,0,.1-1,4.2,4.2,0,1,0-8.38,0,4.79,4.79,0,0,0,.39,1.94Z"/></svg>